<svg width="51" height="46" viewBox="0 0 51 46" fill="none" xmlns="http://www.w3.org/2000/svg">
<g clip-path="url(#clip0_1_1421)">
<path d="M50.0057 0.333069C33.6199 0.34496 17.2338 0.34496 0.847385 0.333069C0.44816 0.333069 0.345215 0.437545 0.345215 0.842707C0.356932 13.3396 0.36028 25.8351 0.355258 38.3291C0.355258 40.1239 0.361117 41.9187 0.3494 43.7135C0.3494 43.9963 0.399617 44.1084 0.709288 44.1025C1.68517 44.0815 2.66162 44.0815 3.63862 44.1025C3.93824 44.1084 4.0437 44.0176 4.00353 43.7211C3.99014 43.6228 3.99014 43.523 4.00353 43.4247C4.04119 43.141 3.91983 43.062 3.6495 43.0713C3.03685 43.0917 2.42169 43.0603 1.8082 43.0849C1.47845 43.0977 1.35793 43.0238 1.35793 42.6526C1.36797 29.0554 1.36797 15.4586 1.35793 1.86198C1.35793 1.44323 1.47845 1.35914 1.87014 1.35999C9.72185 1.37188 17.573 1.37443 25.4236 1.36763C33.2909 1.36763 41.156 1.36537 49.0189 1.36084C49.3755 1.36084 49.5136 1.41605 49.5127 1.83735C49.4993 15.0806 49.4957 28.3238 49.5018 41.567C49.5018 41.9629 49.4859 42.3595 49.5069 42.7562C49.5211 43.0255 49.4232 43.0917 49.1721 43.0866C48.4891 43.0705 47.8053 43.0866 47.1224 43.0764C46.9006 43.0722 46.8144 43.1418 46.8345 43.3635C46.8467 43.4764 46.8467 43.5904 46.8345 43.7033C46.7935 44.004 46.878 44.1186 47.2128 44.1093C48.1736 44.0821 49.1378 44.0838 50.0986 44.1093C50.4509 44.1178 50.5304 44.0091 50.5304 43.66C50.521 29.3986 50.521 15.1375 50.5304 0.876683C50.5296 0.446039 50.4342 0.333069 50.0057 0.333069Z" fill="#FEFEFE"/>
<path d="M27.5631 31.3811C27.4543 31.4083 27.2751 31.3811 27.2894 31.5688C27.3061 31.8032 27.5028 31.6979 27.6158 31.6979C30.9636 31.6979 34.3064 31.7072 37.6517 31.6869C38.5436 31.6926 39.4327 31.5827 40.2973 31.3598C42.7479 30.6973 44.3021 28.5042 44.0125 25.9577C43.8049 24.1349 42.6265 23.034 41.053 22.3104C40.4337 22.0258 39.7717 21.8721 39.0636 21.7549C39.1222 21.6801 39.1289 21.6631 39.1389 21.6606C39.2979 21.613 39.4595 21.5756 39.6177 21.5221C40.8731 21.1127 41.9871 20.491 42.598 19.2389C43.6024 17.186 42.7654 14.7745 40.7057 13.6329C39.3917 12.9067 37.9605 12.7317 36.5017 12.7232C33.672 12.7062 30.8422 12.7173 28.0125 12.7173C27.9288 12.7173 27.8451 12.7173 27.7614 12.7173C27.6777 12.7173 27.5857 12.7054 27.5664 12.8209C27.5472 12.9364 27.6183 13.0027 27.7271 13.0214C27.8359 13.04 27.9481 13.0502 28.0577 13.0698C28.9482 13.2278 29.6479 13.6474 29.7919 14.7737C29.9012 15.5845 29.9594 16.4016 29.9659 17.2199C29.9835 20.9216 30.0496 24.6241 29.8923 28.3232C29.8061 30.3457 29.6705 30.8477 27.5631 31.3811ZM32.8233 17.8485C32.881 16.5599 32.861 15.1474 32.9681 13.7374C32.994 13.3976 33.0928 13.2065 33.4644 13.1632C34.8085 13.0069 36.1334 13.0511 37.4215 13.5089C38.8602 14.0185 40.0437 15.5916 39.9809 17.5758C39.9098 19.8429 38.338 21.2393 36.3904 21.6224C35.2873 21.8389 34.1708 21.7684 33.0585 21.7871C32.7856 21.7922 32.8233 21.6173 32.8233 21.4474V17.8485ZM33.0593 22.2008C34.4353 22.2467 35.8212 22.0649 37.1846 22.3647C39.1029 22.7894 40.4236 23.9174 40.8806 25.8957C41.4439 28.3343 39.96 30.5979 37.4918 31.1059C36.4649 31.3182 35.4187 31.3981 34.3783 31.201C33.4995 31.0311 33.0635 30.5053 32.9672 29.6058C32.8317 28.3258 32.876 27.039 32.8233 26.001V22.5355C32.8233 22.3673 32.7856 22.1914 33.0593 22.2008Z" fill="white"/>
<path d="M11.9637 15.8143C14.174 12.5798 18.2977 11.8264 21.4706 14.0926C23.0189 15.1968 24.0124 16.7198 24.5874 18.5366C24.6292 18.6691 24.6183 18.8815 24.8502 18.8458C25.082 18.8101 25.0017 18.608 25.0025 18.4721C25.01 17.6108 25.0067 16.7487 25.0067 15.8865C25.0067 14.9952 25.0067 14.1048 25.0067 13.2152C25.0067 13.1081 25.0519 12.9697 24.913 12.9196C24.774 12.8695 24.6794 12.9663 24.6008 13.0742C24.3554 13.4175 24.0748 13.7336 23.7638 14.017C23.6023 14.1631 23.4608 14.1784 23.2851 14.0442C22.9587 13.802 22.6084 13.5951 22.2397 13.4267C20.026 12.3734 17.6959 12.1339 15.3006 12.4609C13.3999 12.7208 11.6414 13.3952 10.1952 14.6906C7.6634 16.9508 6.57286 19.8447 6.87332 23.2194C7.17295 26.6263 8.83848 29.1651 11.9093 30.6771C13.3973 31.4109 14.9867 31.7312 16.6338 31.8017C18.9647 31.9019 21.1877 31.5333 23.198 30.2507C23.429 30.1037 23.6065 30.1148 23.7839 30.3186C24.0023 30.5734 24.2283 30.8283 24.4351 31.0916C24.538 31.2249 24.6418 31.3387 24.8125 31.2818C24.9966 31.2207 24.9205 31.0423 24.9222 30.9149C24.9464 29.386 24.9632 27.8622 24.9816 26.3358C24.9816 26.1387 24.9883 25.9408 24.9866 25.7412C24.9866 25.6333 25.0167 25.5042 24.8552 25.4762C24.6937 25.4482 24.6393 25.5611 24.6125 25.6937C24.5991 25.7625 24.5757 25.8296 24.5572 25.8975C23.804 28.6929 21.1852 31.0126 18.4241 31.3336C15.468 31.6785 12.7203 30.2107 11.269 27.4901C10.1885 25.4754 9.88634 23.3145 10.1073 21.0585C10.2931 19.1473 10.8848 17.3925 11.9637 15.8143Z" fill="#FFFEFE"/>
<path d="M44.3867 41.6826C44.3951 41.3148 44.2469 41.2724 43.949 41.2817C43.7306 41.2885 43.6703 41.4303 43.5866 41.5739C43.1413 42.3384 42.6961 43.1028 42.2425 43.8868C42.0751 43.8087 42.0391 43.6779 41.9755 43.5717C41.5662 42.8828 41.1494 42.1965 40.7577 41.4966C40.5987 41.2121 40.356 41.2732 40.1384 41.3029C39.9208 41.3327 40.0187 41.5578 40.0178 41.6852C40.0086 42.8021 40.0178 43.9182 40.0095 45.0352C40.0095 45.2577 40.048 45.3537 40.3024 45.3631C40.6372 45.3758 40.7644 45.2866 40.7477 44.9214C40.7175 44.2571 40.7393 43.5904 40.7393 42.9244C41.1854 43.4986 41.5352 44.0873 41.8926 44.6716C42.0826 44.9817 42.2935 44.98 42.4852 44.6716C42.6986 44.3242 42.8953 43.9658 43.1129 43.6209C43.2752 43.3661 43.3874 43.0646 43.677 42.8021C43.677 43.5853 43.6854 44.2894 43.672 44.9927C43.672 45.2475 43.7013 45.3749 44.0067 45.3656C44.2838 45.3571 44.3959 45.307 44.3901 44.9936C44.3691 43.8868 44.3616 42.7843 44.3867 41.6826Z" fill="#FEFEFE"/>
<path d="M29.1671 43.2335C29.6023 42.8997 29.7203 42.4937 29.5855 42.0367C29.4508 41.5797 29.0591 41.4031 28.6247 41.3377C27.9192 41.2306 27.2078 41.3147 26.4997 41.2893C26.3323 41.2833 26.2863 41.3699 26.2871 41.5228C26.2905 42.7228 26.2905 43.9224 26.2871 45.1217C26.2871 45.2772 26.3348 45.3596 26.5022 45.3536C27.2664 45.323 28.033 45.4173 28.7946 45.2976C29.2775 45.2211 29.7002 45.0274 29.8065 44.4957C29.9128 43.964 29.7479 43.5164 29.1671 43.2335ZM27.0437 42.0444C27.0437 41.9093 27.1483 41.8957 27.2513 41.8991C27.6246 41.9093 27.9995 41.9051 28.3711 41.9382C28.6632 41.9645 28.8691 42.131 28.8733 42.4529C28.8733 42.7587 28.6666 42.9065 28.4046 42.9575C28.193 42.9875 27.9797 43.0034 27.766 43.005C27.5149 42.9549 27.1751 43.1121 27.0839 42.9142C26.9709 42.6704 27.0437 42.3374 27.0437 42.0435V42.0444ZM28.5871 44.6936C28.3125 44.7302 28.0355 44.7412 27.7602 44.7633C27.0328 44.7463 27.0479 44.7463 27.0328 43.9793C27.027 43.6744 27.0931 43.5436 27.4187 43.5792C27.8162 43.6225 28.2213 43.5436 28.6189 43.6429C28.8934 43.7117 29.0708 43.868 29.0717 44.1628C29.0725 44.4779 28.885 44.6537 28.5871 44.6928V44.6936Z" fill="#FEFDFD"/>
<path d="M16.9312 41.6299C17.0415 41.6312 17.1514 41.6458 17.2584 41.6732C17.5162 41.7275 17.4467 41.4897 17.5154 41.3793C17.5991 41.2451 17.5622 41.1559 17.4141 41.0845C16.804 40.789 15.9687 41.1313 15.8942 41.798C15.8373 42.3017 15.5895 42.2856 15.2489 42.2618C15.11 42.2525 14.9694 42.2695 14.8304 42.2576C14.7091 42.2465 14.5224 42.3298 14.5166 42.097C14.5115 41.9042 14.5593 41.7216 14.7626 41.6511C14.8956 41.6014 15.0419 41.6032 15.1736 41.6562C15.464 41.7827 15.4062 41.5058 15.4774 41.3903C15.5736 41.2323 15.4991 41.1355 15.3401 41.071C14.6371 40.7864 13.9056 41.2001 13.8127 41.9586C13.7884 42.1573 13.7692 42.2873 13.5332 42.2601C13.3105 42.2346 13.2896 42.3816 13.2971 42.5565C13.3038 42.7128 13.2745 42.8963 13.5139 42.87C13.8202 42.836 13.8068 43.0297 13.8043 43.2412C13.7985 43.8357 13.8194 44.4303 13.7943 45.0249C13.7809 45.3341 13.9181 45.3647 14.1642 45.3647C14.4103 45.3647 14.54 45.3222 14.5283 45.0249C14.504 44.4303 14.5283 43.8357 14.5182 43.2412C14.5132 42.9863 14.5601 42.87 14.8589 42.8691C15.8415 42.8691 15.8415 42.8538 15.8415 43.8502V44.105C15.8415 44.3734 15.8515 44.6427 15.8415 44.9102C15.8281 45.1914 15.8331 45.3782 16.2214 45.3731C16.5863 45.3681 16.5838 45.1973 16.578 44.9332C16.5663 44.4108 16.5947 43.8867 16.5671 43.3652C16.5487 43.0033 16.6173 42.8241 17.0283 42.8708C17.363 42.9082 17.4752 42.7298 17.3806 42.4113C17.2969 42.1412 17.076 42.3077 16.9211 42.2661C16.7814 42.2295 16.5579 42.351 16.5679 42.0554C16.5738 41.8057 16.67 41.6392 16.9312 41.6299Z" fill="#FDFDFD"/>
<path d="M37.1208 41.2282C35.883 41.2485 34.9924 42.1498 35.0075 43.3661C35.0217 44.5391 35.9591 45.4267 37.1702 45.414C38.3963 45.4012 39.3362 44.472 39.3153 43.2905C39.2944 42.1005 38.3428 41.2069 37.1208 41.2282ZM37.1535 44.7158C36.3441 44.7107 35.7432 44.1076 35.7549 43.3092C35.7666 42.4963 36.3592 41.9196 37.1777 41.9272C37.9963 41.9349 38.557 42.5218 38.5461 43.3533C38.5319 44.1501 37.9511 44.72 37.1535 44.7158Z" fill="#FDFDFD"/>
<path d="M32.46 41.2274C31.2288 41.2095 30.2839 42.1073 30.2764 43.2957C30.2764 44.5103 31.1652 45.3954 32.4123 45.4132C33.6309 45.4302 34.5733 44.5213 34.5766 43.3228C34.5766 42.1439 33.6719 41.2444 32.46 41.2274ZM32.3989 44.7099C31.5703 44.6997 31.0305 44.1264 31.0455 43.2727C31.0606 42.4658 31.6314 41.9137 32.4483 41.9196C33.2651 41.9256 33.8175 42.5193 33.8041 43.3636C33.7924 44.1731 33.2191 44.7209 32.4005 44.7108L32.3989 44.7099Z" fill="#FDFDFD"/>
<path d="M8.07989 41.9222C8.41653 41.914 8.74503 42.0278 9.00639 42.2433C9.29765 42.4811 9.38051 42.1363 9.52698 42.0233C9.71864 41.8747 9.50689 41.7863 9.42319 41.7073C9.08841 41.3947 8.67496 41.2826 8.24058 41.2368C7.29734 41.128 6.36079 41.6988 6.04526 42.5763C5.72973 43.4537 6.01848 44.4815 6.73993 44.9979C7.53001 45.5644 8.74861 45.5373 9.42571 44.935C9.532 44.8407 9.72199 44.7337 9.50019 44.5876C9.35038 44.4899 9.28593 44.1239 8.98296 44.4025C8.87266 44.5075 8.74272 44.589 8.60082 44.6421C8.45892 44.6952 8.30796 44.7188 8.15689 44.7116C7.26386 44.721 6.69222 44.1604 6.6872 43.3288C6.68218 42.4973 7.25047 41.9248 8.07989 41.9222Z" fill="#FDFCFC"/>
<path d="M22.909 42.2442C22.0888 42.0896 21.3355 42.488 21.0727 43.215C20.8417 43.8546 21.0175 44.5953 21.4912 44.9988C22.0051 45.4294 22.9659 45.5194 23.54 45.1686C23.6673 45.0905 23.9451 45.0404 23.7995 44.7864C23.6781 44.5749 23.5484 44.3914 23.2212 44.6089C22.7767 44.9079 22.1331 44.7694 21.8603 44.394C21.795 44.304 21.7121 44.2046 21.764 44.0882C21.8159 43.9718 21.9373 44.0322 22.0268 44.0305C22.3189 44.0228 22.6127 44.0305 22.9048 44.0305C23.2111 44.0305 23.5183 44.0177 23.8254 44.0305C24.0464 44.0423 24.1134 43.96 24.1075 43.74C24.0908 43.0214 23.5752 42.369 22.909 42.2442ZM23.1601 43.5302C22.9383 43.5242 22.7156 43.5302 22.4905 43.5302C22.3382 43.5302 22.185 43.5387 22.0335 43.5302C21.9331 43.5225 21.7824 43.5973 21.7473 43.4503C21.728 43.3739 21.7891 43.2634 21.8394 43.1845C22.1741 42.6527 23.0002 42.6944 23.2982 43.249C23.3969 43.4291 23.4112 43.537 23.1592 43.5302H23.1601Z" fill="#FCFCFC"/>
<path d="M19.7193 42.3486C19.1117 42.0997 18.5107 42.16 17.9994 42.6119C17.4135 43.1326 17.3298 44.1357 17.8002 44.7677C18.2705 45.3996 19.377 45.5933 20.0825 45.1575C20.2148 45.0726 20.4717 45.0089 20.3118 44.7592C20.1871 44.5638 20.0683 44.3973 19.7611 44.5952C19.2464 44.9265 18.5635 44.7507 18.3274 44.3039C18.2287 44.117 18.2329 44.0168 18.4781 44.0219C18.7986 44.0295 19.1192 44.0219 19.4389 44.0219C19.7318 44.0219 20.0248 44.0074 20.316 44.027C20.5671 44.044 20.6157 43.9378 20.6056 43.7076C20.578 43.0706 20.3035 42.5873 19.7193 42.3486ZM19.6507 43.5318C19.4439 43.5216 19.2364 43.5318 19.0296 43.5318C18.9056 43.5382 18.7813 43.5382 18.6572 43.5318C18.5275 43.5182 18.34 43.6091 18.2806 43.4638C18.2111 43.294 18.3684 43.1538 18.4856 43.0391C18.8673 42.6696 19.5653 42.7724 19.813 43.2294C19.9135 43.4112 19.9302 43.5454 19.6507 43.5318Z" fill="#FBFBFB"/>
<path d="M11.4868 42.2195C10.531 42.2127 9.8347 42.8837 9.83889 43.807C9.83889 44.7125 10.5302 45.3826 11.4584 45.3843C12.4142 45.3843 13.1055 44.7192 13.1047 43.7934C13.1038 42.8879 12.4251 42.2263 11.4868 42.2195ZM11.4517 44.7566C10.9612 44.7481 10.5871 44.3464 10.5754 43.8223C10.5637 43.2982 10.9462 42.8514 11.4492 42.8361C11.9522 42.8208 12.3539 43.232 12.3598 43.7764C12.3648 44.3549 11.9832 44.7685 11.4517 44.7566Z" fill="#FCFCFC"/>
</g>
<defs>
<clipPath id="clip0_1_1421">
<rect width="50.1844" height="45.0809" fill="white" transform="translate(0.345215 0.333069)"/>
</clipPath>
</defs>
</svg>
