<svg width="118" height="12" viewBox="0 0 118 12" fill="none" xmlns="http://www.w3.org/2000/svg">
<path d="M116.978 7.34648C116.717 6.88537 116.316 6.68488 115.674 6.76508C115.253 6.80517 114.973 7.0658 114.852 7.44672C114.672 7.94793 114.832 8.46919 115.213 8.78997C115.714 9.19093 116.536 9.03055 116.937 8.46919C117.018 8.3489 117.018 8.14842 117.238 8.14842C117.238 8.00808 117.238 7.84769 117.238 7.70735C117.018 7.6873 117.038 7.46677 116.978 7.34648Z" fill="#191919"/>
<path d="M117.138 7.46667C116.917 6.82512 116.276 6.4843 115.594 6.62464C114.973 6.76498 114.552 7.36643 114.632 8.02803C114.712 8.66957 115.273 9.13069 115.935 9.11064C116.637 9.11064 116.957 8.64953 117.218 8.10822C116.998 8.10822 116.998 8.3087 116.917 8.42899C116.516 8.99035 115.694 9.17079 115.193 8.74977C114.812 8.44904 114.652 7.90773 114.832 7.40652C114.973 7.0256 115.233 6.76498 115.654 6.72488C116.296 6.64468 116.677 6.84517 116.957 7.30628C117.038 7.42657 116.998 7.64711 117.218 7.64711C117.138 7.64711 117.178 7.54686 117.138 7.46667Z" fill="#191919"/>
<path d="M48.4117 11.8575C48.3917 11.8975 48.3716 11.9376 48.3516 11.9577C49.1134 11.9577 49.8753 11.9577 50.6371 11.9577C50.617 11.9176 50.597 11.8975 50.5769 11.8575C49.8352 11.8575 49.1335 11.8575 48.4117 11.8575Z" fill="#8D8D8D"/>
<path d="M50.5571 11.8575C50.5772 11.8975 50.5972 11.9376 50.6173 11.9577C50.6173 11.9176 50.5972 11.8975 50.5972 11.8575C50.5972 11.8575 50.5772 11.8575 50.5571 11.8575Z" fill="#8D8D8D"/>
<path d="M48.3716 11.8575C48.3716 11.8975 48.3516 11.9176 48.3516 11.9577C48.3716 11.9176 48.3917 11.8975 48.4117 11.8575C48.3917 11.8575 48.3716 11.8575 48.3716 11.8575Z" fill="#8D8D8D"/>
<path d="M10.4596 7.98797C10.4596 7.22613 10.4596 7.20608 9.67772 7.22613C9.33689 7.22613 9.27675 7.12589 9.27675 6.80512C9.2968 5.08095 9.27675 3.33674 9.2968 1.61258C9.2968 1.31185 9.23665 1.21161 8.91587 1.21161C7.95354 1.23166 6.97117 1.21161 6.00883 1.21161C4.98636 1.21161 3.98393 1.21161 2.96146 1.21161C2.74092 1.21161 2.66073 1.27175 2.66073 1.49229C2.68078 1.9935 2.66073 2.51476 2.66073 3.01597C2.66073 3.91814 2.70082 4.82032 2.50034 5.70245C2.3199 6.44424 1.93898 7.0056 1.11699 7.16599C0.936552 7.20608 0.916504 7.28628 0.916504 7.42662C0.916504 8.66962 0.916504 9.89257 0.916504 11.1356C0.916504 11.3361 0.97665 11.4163 1.19718 11.4163C1.67835 11.3962 2.15951 11.3962 2.64068 11.4163C2.88126 11.4163 2.9815 11.3561 2.96146 11.0955C2.94141 10.5341 2.96146 9.99281 2.96146 9.43146C2.96146 9.19088 3.00155 9.09064 3.28223 9.09064C4.90617 9.11068 6.51005 9.11068 8.13398 9.09064C8.41466 9.09064 8.43471 9.19088 8.43471 9.41141C8.41466 9.97277 8.43471 10.5141 8.43471 11.0754C8.43471 11.316 8.49485 11.4163 8.75549 11.3962C9.19655 11.3762 9.63762 11.3762 10.0787 11.3962C10.3995 11.4163 10.4997 11.3361 10.4997 10.9952C10.4596 10.0129 10.4596 8.99039 10.4596 7.98797ZM7.03131 6.90536C7.03131 7.0457 7.07141 7.20608 6.83083 7.20608C5.88854 7.20608 4.92621 7.20608 3.90374 7.20608C4.86607 6.18362 4.70568 4.98071 4.72573 3.8179C4.72573 3.1563 4.72573 3.1563 5.38733 3.1563C5.84845 3.1563 6.28951 3.1563 6.75063 3.1563C6.95112 3.1563 7.05136 3.17635 7.05136 3.43698C7.03131 4.57974 7.03131 5.74255 7.03131 6.90536Z" fill="#191919"/>
<path d="M50.5172 1.91343C50.5373 1.53251 50.3568 1.41222 49.9759 1.43227C49.615 1.45231 49.2341 1.45231 48.8732 1.43227C48.5725 1.43227 48.4522 1.5726 48.4522 1.85328C48.4522 1.99362 48.4522 2.11391 48.4522 2.25425C48.4522 5.24146 48.4522 8.20863 48.4522 11.1958C48.4522 11.4164 48.4723 11.6369 48.4121 11.8374C48.8732 11.6369 49.3744 11.7772 49.8356 11.7572C50.0761 11.7371 50.3167 11.6971 50.5373 11.8374C50.4571 10.7748 50.4972 9.69221 50.5172 8.62964C50.5172 8.5294 50.5172 8.40911 50.5974 8.34897C50.5974 8.32892 50.5974 8.30887 50.5974 8.28882C50.6174 8.30887 50.6174 8.32892 50.6375 8.32892C50.7778 8.26877 50.858 8.38906 50.9382 8.46926C52.0609 9.53182 53.3641 9.63207 54.6873 9.05066C56.0506 8.44921 56.7924 7.3265 56.9327 5.84292C57.033 4.70016 56.8525 3.61754 56.1709 2.65522C55.0081 0.9912 52.2815 0.690474 50.9382 2.11391C50.858 2.1941 50.7578 2.3144 50.6575 2.2743C50.6375 2.29435 50.6375 2.29435 50.6174 2.3144C50.6174 2.29435 50.6174 2.2743 50.6174 2.25425C50.5172 2.17406 50.5172 2.03372 50.5172 1.91343ZM52.6223 3.05619C53.8653 3.07623 54.7875 4.03856 54.7875 5.28156C54.7875 6.54461 53.8052 7.50693 52.5622 7.48689C51.3392 7.46684 50.3969 6.48446 50.3969 5.24146C50.3969 3.99846 51.3592 3.03614 52.6223 3.05619Z" fill="#191919"/>
<path d="M50.5173 8.6096C50.5173 9.67216 50.4571 10.7548 50.5373 11.8173C50.5574 11.8374 50.5774 11.8374 50.5975 11.8574C50.5975 10.7147 50.5975 9.57192 50.5975 8.34897C50.5173 8.40911 50.5173 8.5294 50.5173 8.6096Z" fill="#191919"/>
<path d="M48.4719 11.1958C48.4719 8.20857 48.4719 5.24141 48.4719 2.25419C48.4719 2.11385 48.4719 1.99356 48.4719 1.85322C48.4518 1.57255 48.5921 1.43221 48.8929 1.43221C49.2537 1.43221 49.6347 1.45226 49.9955 1.43221C50.3564 1.41216 50.5569 1.53245 50.5369 1.91337C50.5369 2.03366 50.5369 2.15395 50.6371 2.23414C50.6371 2.01361 50.617 1.85322 50.6371 1.73293C50.6972 1.39211 50.5369 1.31192 50.2161 1.33197C49.7149 1.35201 49.2137 1.35201 48.7124 1.33197C48.4719 1.33197 48.3516 1.37206 48.3516 1.65274C48.3716 5.06097 48.3716 8.4692 48.3716 11.8574C48.3917 11.8574 48.4117 11.8373 48.4318 11.8373C48.4919 11.6168 48.4719 11.4163 48.4719 11.1958Z" fill="#191919"/>
<path d="M50.9584 2.09378C52.2816 0.670343 55.0082 0.991118 56.1911 2.63509C56.8728 3.61746 57.0532 4.68003 56.953 5.82278C56.8327 7.30637 56.0708 8.42908 54.7075 9.03053C53.3843 9.61193 52.0611 9.51169 50.9584 8.44913C50.8782 8.36893 50.7981 8.24864 50.6577 8.30879C52.2015 10.053 54.7276 9.57184 55.8703 8.42908C56.7725 7.50685 57.1334 6.40419 57.1133 5.14114C57.0933 3.83799 56.6522 2.71528 55.6298 1.87325C54.908 1.2718 54.0459 1.05126 53.1437 1.07131C52.1814 1.09136 51.3594 1.43218 50.6778 2.25417C50.778 2.29426 50.8782 2.17397 50.9584 2.09378Z" fill="#191919"/>
<path d="M50.5573 11.8172C50.3368 11.6969 50.0962 11.737 49.8556 11.737C49.3744 11.757 48.8933 11.6368 48.4322 11.8172C48.4322 11.8172 48.4322 11.8372 48.4121 11.8372C49.1339 11.8372 49.8556 11.8372 50.5573 11.8372C50.5573 11.8573 50.5573 11.8573 50.5573 11.8172C50.5573 11.8372 50.5573 11.8372 50.5573 11.8172Z" fill="#191919"/>
<path d="M48.4317 11.8373C48.4117 11.8373 48.3916 11.8573 48.3716 11.8573C48.3716 11.8573 48.3916 11.8573 48.4317 11.8373C48.4117 11.8573 48.4117 11.8573 48.4317 11.8373Z" fill="#191919"/>
<path d="M50.5571 11.8373C50.5571 11.8373 50.5571 11.8573 50.5772 11.8573C50.5972 11.8573 50.5972 11.8573 50.6173 11.8573C50.5972 11.8573 50.5772 11.8373 50.5571 11.8373Z" fill="#191919"/>
<path d="M104.227 1.29178C104.187 1.0913 104.127 1.03115 103.926 1.03115C102.543 0.950956 102.543 0.950956 101.981 2.19396C101.961 2.23405 101.941 2.27415 101.921 2.31425C101.4 3.43696 100.899 4.53962 100.377 5.64228C100.257 5.64228 100.257 5.56209 100.237 5.52199C99.7159 4.41933 99.2146 3.31667 98.6934 2.19396C98.112 0.950956 98.112 0.950956 96.7487 1.03115C96.5682 1.03115 96.468 1.07125 96.448 1.29178C96.3678 1.85313 96.2475 2.41449 96.1472 2.9558C95.7864 4.92054 95.4455 6.90533 95.0846 8.87008C95.0446 9.07056 95.0646 9.15076 95.3052 9.15076C95.8866 9.13071 96.488 9.15076 97.0695 9.15076C97.2499 9.15076 97.3301 9.09061 97.3501 8.91018C97.4303 8.32877 97.5306 7.76742 97.6108 7.18601C97.7311 6.46427 97.8313 5.74253 97.9716 4.90049C98.6332 6.34398 99.2548 7.64713 99.8562 8.97032C99.9564 9.19085 100.077 9.2911 100.337 9.2911C100.598 9.2911 100.738 9.23095 100.839 8.97032C100.919 8.72974 101.039 8.52926 101.139 8.28868C101.641 7.18601 102.162 6.08335 102.703 4.92054C102.743 5.14107 102.783 5.26136 102.803 5.38166C102.984 6.52441 103.164 7.68722 103.325 8.82998C103.365 9.05051 103.425 9.13071 103.645 9.13071C104.227 9.11066 104.788 9.11066 105.37 9.13071C105.59 9.13071 105.65 9.07056 105.61 8.85003C105.129 6.36403 104.668 3.81788 104.227 1.29178Z" fill="#191919"/>
<path d="M28.2828 1.29184C28.0422 1.09136 27.5009 1.2317 27.1 1.21165C26.7992 1.21165 26.4183 1.13146 26.1978 1.27179C25.9772 1.41213 26.1777 1.8131 26.0975 2.13388C25.8369 1.83315 25.5963 1.57252 25.2956 1.39209C24.0325 0.630246 22.0277 0.890875 20.905 2.01359C19.6018 3.31673 19.3612 4.92061 19.8624 6.60467C20.2634 7.92787 21.1455 8.85009 22.5088 9.21097C23.8521 9.57184 25.0951 9.37135 26.0574 8.24864C26.0574 8.24864 26.0775 8.24864 26.1376 8.26869C26.1376 8.40903 26.1577 8.56942 26.1376 8.7298C26.0775 9.07063 26.2178 9.15082 26.5386 9.13077C27.0198 9.11072 27.5009 9.11072 27.9821 9.13077C28.3029 9.15082 28.363 9.03053 28.363 8.74985C28.343 6.66482 28.363 4.55973 28.363 2.4747C28.343 2.05368 28.5234 1.51238 28.2828 1.29184ZM24.1127 7.40661C22.8697 7.38656 21.9074 6.36409 21.9475 5.12109C21.9876 3.83799 22.9098 2.93581 24.213 2.97591C25.4359 2.99596 26.3582 3.97833 26.3181 5.24138C26.298 6.46433 25.3156 7.44671 24.1127 7.40661Z" fill="#191919"/>
<path d="M66.155 2.17392C65.0323 1.15145 63.669 0.971012 62.2055 1.1314C59.539 1.41208 57.875 3.79784 58.5165 6.36403C58.9977 8.24858 60.6016 9.43144 62.7668 9.49159C63.0876 9.47154 63.4084 9.47154 63.7292 9.43144C65.4533 9.21091 66.7364 8.34883 67.2777 6.66476C67.8391 4.98069 67.5183 3.41692 66.155 2.17392ZM62.9673 7.50679C61.7243 7.50679 60.7419 6.54447 60.7419 5.30147C60.7419 4.03842 61.7043 3.07609 62.9473 3.07609C64.1903 3.07609 65.1727 4.03842 65.1727 5.28142C65.1927 6.50437 64.2103 7.48675 62.9673 7.50679Z" fill="#191919"/>
<path d="M44.1213 1.4321C43.1991 1.05118 42.2568 0.991038 41.2744 1.11133C38.0265 1.5123 36.7033 4.74009 38.0065 7.24614C38.8886 8.93021 40.4324 9.49156 42.2969 9.47152C42.4773 9.45147 42.6778 9.45147 42.8783 9.43142C44.7228 9.25098 46.3066 7.84759 46.5672 6.10338C46.908 3.97825 45.9858 2.19394 44.1213 1.4321ZM42.0763 7.50677C40.8534 7.48672 39.8911 6.5244 39.871 5.30145C39.871 4.0384 40.8534 3.05602 42.1164 3.05602C43.3595 3.07607 44.3017 4.0384 44.3017 5.30145C44.3017 6.54445 43.2993 7.50677 42.0763 7.50677Z" fill="#191919"/>
<path d="M88.0276 1.45232C86.2634 2.3545 85.4414 4.57987 86.123 6.64486C86.7245 8.48931 88.4687 9.53183 90.6139 9.39149C92.0975 9.29125 93.2002 8.62965 93.9219 7.3666C94.1625 6.94559 94.1625 6.94559 93.6613 6.84534C93.2804 6.7852 92.8994 6.72505 92.5386 6.66491C92.2378 6.60476 92.0173 6.64486 91.7968 6.92554C91.2354 7.64728 90.4535 7.74752 89.6115 7.54704C88.8095 7.34655 88.4086 6.76515 88.2682 6.00331C88.2081 5.72263 88.2482 5.56224 88.6291 5.58229C89.4711 5.62239 90.3332 5.60234 91.1753 5.60234C92.0774 5.60234 92.9596 5.60234 93.8618 5.60234C94.0222 5.60234 94.1825 5.64244 94.1825 5.38181C94.1625 4.19895 93.962 3.09629 93.12 2.19411C91.9572 0.911013 89.6917 0.610287 88.0276 1.45232ZM88.5689 4.11876C88.2281 4.11876 88.3484 3.93832 88.4086 3.77794C88.6692 3.03615 89.4511 2.51489 90.253 2.57503C91.1552 2.63518 91.7968 3.15644 92.0173 4.11876C90.8545 4.11876 89.7117 4.11876 88.5689 4.11876Z" fill="#191919"/>
<path d="M16.8356 4.86055C17.3368 4.57987 17.6376 4.23905 17.7779 3.75789C18.0987 2.59508 17.3569 1.49242 16.0537 1.31198C14.6704 1.1115 13.267 1.27189 11.8836 1.23179C11.7032 1.23179 11.6631 1.31198 11.6631 1.47237C11.6631 3.93832 11.6631 6.40428 11.6631 8.89028C11.6631 9.07072 11.7032 9.15091 11.9037 9.15091C13.3672 9.13086 14.8308 9.23111 16.2943 9.11081C17.818 8.99052 18.7202 7.62723 18.2791 6.2038C18.0786 5.48205 17.5373 5.10113 16.8356 4.86055ZM14.0288 3.03615C14.51 2.91586 15.0914 2.89581 15.5726 3.15644C15.773 3.27673 15.8332 3.49726 15.8131 3.73784C15.7931 3.99847 15.6327 4.19895 15.3721 4.2992C15.1114 4.39944 14.8308 4.37939 14.5501 4.37939C14.4498 4.37939 14.3496 4.35934 14.2493 4.37939C13.9687 4.41949 13.8684 4.31924 13.9085 4.03857C13.9085 3.97842 13.9085 3.91828 13.9085 3.85813C13.9486 3.57745 13.7481 3.09629 14.0288 3.03615ZM15.4723 7.30646C15.4122 7.32651 15.352 7.34655 15.3119 7.34655C15.0914 7.34655 14.8709 7.34655 14.6503 7.34655C13.9085 7.34655 13.9085 7.34655 13.9085 6.60476C13.9085 5.82288 13.9085 5.80283 14.7105 5.82288C14.951 5.82288 15.1716 5.82288 15.4122 5.86297C15.773 5.92312 16.0337 6.10355 16.0738 6.50452C16.0938 6.86539 15.8733 7.16612 15.4723 7.30646Z" fill="#191919"/>
<path d="M73.9136 4.96074C73.7332 4.74021 73.6931 4.61992 73.9136 4.39939C74.7356 3.6175 75.5576 2.81556 76.3796 2.01363C76.6603 1.753 76.941 1.49237 77.2216 1.21169C76.3796 1.11145 75.6178 1.1315 74.8359 1.11145C74.5552 1.11145 74.3748 1.17159 74.1743 1.37208C73.3122 2.27426 72.4501 3.15639 71.5078 4.11871C71.5078 3.15639 71.4878 2.2943 71.5078 1.43222C71.5078 1.15155 71.4276 1.0914 71.167 1.0914C70.6257 1.11145 70.0844 1.11145 69.543 1.0914C69.2824 1.0914 69.2223 1.17159 69.2423 1.41217C69.2423 3.81798 69.2423 6.24384 69.2423 8.64965C69.2423 8.93033 69.3426 8.99048 69.5831 8.99048C70.0844 8.97043 70.5856 8.97043 71.0868 8.99048C71.4276 9.01052 71.5479 8.93033 71.5279 8.56946C71.4878 7.80762 71.5279 7.02573 71.5078 6.26389C71.5078 6.06341 71.588 5.90302 71.7484 5.84287C71.9288 5.76268 71.989 5.96316 72.0692 6.06341C72.831 6.94554 73.5728 7.84771 74.3347 8.72985C74.4349 8.83009 74.495 8.99048 74.6554 8.99048C75.5576 8.99048 76.4598 8.99048 77.4221 8.99048C77.2818 8.83009 77.2216 8.72985 77.1214 8.6296C76.0588 7.4267 74.9762 6.20375 73.9136 4.96074Z" fill="#191919"/>
<path d="M111.505 4.09858C110.823 3.99834 110.161 4.03843 109.48 4.03843C109.199 4.03843 109.099 3.97829 109.119 3.67756C109.139 2.97587 109.119 2.25413 109.139 1.53238C109.139 1.2918 109.079 1.21161 108.818 1.21161C108.277 1.23166 107.736 1.23166 107.194 1.21161C106.934 1.21161 106.874 1.31185 106.874 1.53238C106.874 3.95824 106.874 6.3841 106.874 8.80996C106.874 9.05054 106.934 9.13073 107.194 9.13073C107.816 9.11068 108.457 9.13073 109.219 9.13073C109.881 9.09063 110.663 9.17083 111.465 9.07059C112.748 8.9102 113.59 7.94787 113.61 6.62468C113.63 5.24134 112.848 4.29906 111.505 4.09858ZM110.803 7.26623C110.302 7.44666 109.801 7.36647 109.279 7.38652C109.119 7.38652 109.139 7.26623 109.139 7.16599C109.139 6.98555 109.139 6.78507 109.139 6.60463C109.139 5.82274 109.139 5.8027 109.941 5.82274C110.202 5.82274 110.482 5.82274 110.723 5.88289C111.024 5.94303 111.244 6.12347 111.264 6.48434C111.284 6.84521 111.164 7.12589 110.803 7.26623Z" fill="#191919"/>
<path d="M84.3992 1.35204C81.4922 0.209277 78.4849 1.77305 78.2443 4.76027C78.124 6.36414 78.6252 7.70738 79.9685 8.62961C81.3518 9.57189 82.8755 9.61198 84.4193 9.01053C84.5396 8.95039 84.6398 8.91029 84.6398 8.72985C84.6398 8.0883 84.6398 7.42671 84.6398 6.76511C83.1963 7.66729 81.8932 7.60714 81.0712 6.62477C80.3695 5.80278 80.3895 4.47959 81.1313 3.6576C81.8932 2.77547 83.2565 2.75543 84.6398 3.63756C84.6398 2.95591 84.6398 2.31436 84.6398 1.67281C84.6398 1.47233 84.5396 1.41218 84.3992 1.35204Z" fill="#191919"/>
<path d="M36.2623 6.80524C35.0594 7.68738 33.7963 7.70742 32.8941 6.90549C32.1323 6.22384 31.9719 4.94074 32.5333 4.01852C32.9342 3.35692 33.5557 3.09629 34.2975 3.05619C35.0193 3.01609 35.6608 3.27672 36.2623 3.73784C36.2623 3.03614 36.2623 2.39459 36.2623 1.77309C36.2623 1.61271 36.2222 1.51246 36.0618 1.45232C33.235 0.28951 30.1274 1.79314 29.8869 4.8405C29.7666 6.46442 30.2678 7.80767 31.6511 8.72989C33.0345 9.65212 34.5181 9.69222 36.0418 9.09076C36.1621 9.03062 36.2823 8.99052 36.2623 8.83013C36.2623 8.16854 36.2623 7.52699 36.2623 6.80524Z" fill="#191919"/>
</svg>
