<svg width="29" height="21" viewBox="0 0 29 21" fill="none" xmlns="http://www.w3.org/2000/svg">
<path d="M5.52028 6.67372C5.58422 6.67372 5.60553 6.65774 5.60553 6.58847C5.60553 5.81586 5.60553 5.03792 5.60553 4.26531C5.60553 4.20137 5.58955 4.17473 5.52028 4.18006C5.36043 4.18539 5.19525 4.17473 5.0354 4.18539C4.93949 4.19071 4.90752 4.16407 4.91285 4.06283C4.91817 2.95454 4.91284 1.85157 4.91817 0.743274C4.91817 0.65802 4.90219 0.631378 4.80628 0.631378C4.19885 0.636707 3.58609 0.631378 2.97865 0.631378C2.36057 0.631378 1.74248 0.631378 1.12439 0.631378C1.03914 0.631378 1.01782 0.652692 1.01782 0.737945C1.02315 1.29209 1.02315 1.84624 1.01782 2.40039C1.01782 2.67746 1.00184 2.95454 0.943226 3.22628C0.836659 3.71649 0.602212 4.0948 0.0587205 4.18006C-0.00521969 4.19071 0.000108746 4.22268 0.000108746 4.26531C0.000108746 5.03792 0.000108746 5.81586 0.000108746 6.58847C0.000108746 6.66307 0.0214221 6.67905 0.096019 6.67905C0.426376 6.67372 0.762062 6.67372 1.09242 6.67905C1.18833 6.67905 1.20432 6.64708 1.20432 6.56183C1.19899 6.18884 1.20432 5.81053 1.19899 5.43755C1.19899 5.34164 1.2203 5.30967 1.32154 5.30967C2.30728 5.315 3.29836 5.315 4.2841 5.30967C4.38001 5.30967 4.41198 5.33098 4.41198 5.43222C4.40665 5.81053 4.41198 6.18884 4.40665 6.56716C4.40665 6.63642 4.41731 6.67372 4.50256 6.67372C4.84891 6.67372 5.18459 6.67372 5.52028 6.67372ZM3.59141 4.0948C3.59141 4.16407 3.57543 4.18539 3.50083 4.18539C2.92004 4.18006 2.34458 4.18539 1.76379 4.18539C1.75313 4.18539 1.74248 4.18006 1.71584 4.17473C2.12612 3.78576 2.21137 3.2849 2.2167 2.76272C2.22203 2.459 2.22203 2.16061 2.2167 1.8569C2.2167 1.7823 2.22736 1.75566 2.31261 1.75566C2.70691 1.76099 3.10654 1.76099 3.50083 1.75566C3.57543 1.75566 3.59141 1.77697 3.59141 1.84624C3.59141 2.59754 3.59141 3.34351 3.59141 4.0948Z" fill="white"/>
<path d="M11.0617 14.4262C11.4187 14.4208 11.7757 14.4208 12.1327 14.4262C12.2446 14.4262 12.2606 14.3889 12.2606 14.2876C12.2553 13.6536 12.2606 13.0195 12.2606 12.3854C12.2606 12.3428 12.2499 12.3002 12.2713 12.2575C12.3139 12.2735 12.3299 12.3161 12.3565 12.3428C12.5483 12.5612 12.7721 12.7317 13.0439 12.8383C13.7792 13.1207 15.01 13.0035 15.6921 11.9165C16.0544 11.3411 16.129 10.7123 16.0544 10.0516C15.9425 9.05519 15.2232 8.10674 14.0722 7.99485C13.4861 7.93624 12.9426 8.03215 12.495 8.45309C12.4151 8.52768 12.3458 8.61294 12.2553 8.70885C12.2553 8.53301 12.2499 8.38382 12.2553 8.2293C12.2606 8.14937 12.2393 8.12806 12.1594 8.12806C11.7864 8.13339 11.4081 8.13339 11.0351 8.12806C10.9445 8.12806 10.9338 8.16003 10.9338 8.23463C10.9338 10.2541 10.9338 12.2788 10.9338 14.2983C10.9392 14.4102 10.9711 14.4262 11.0617 14.4262ZM13.4328 9.16176C14.1841 9.16176 14.717 9.72123 14.717 10.4938C14.717 11.2451 14.1575 11.7993 13.4062 11.794C12.6762 11.794 12.1327 11.2185 12.1327 10.4565C12.138 9.71058 12.6922 9.16176 13.4328 9.16176Z" fill="white"/>
<path d="M15.3402 15.6143C15.3243 15.5344 15.2923 15.5131 15.2124 15.5131C14.9566 15.5184 14.7008 15.5184 14.4451 15.5131C14.3652 15.5131 14.3279 15.5397 14.2906 15.609C14.0721 16.0992 13.8483 16.5894 13.6245 17.0796C13.438 17.4899 13.2515 17.8948 13.0544 18.3264C12.6334 17.41 12.2285 16.5148 11.8182 15.6196C11.7862 15.545 11.7489 15.5077 11.6584 15.5131C11.4719 15.5184 11.2854 15.5131 11.0989 15.5131C10.7845 15.5131 10.7898 15.5131 10.7366 15.8274C10.5394 16.9624 10.3316 18.092 10.1344 19.2269C10.0705 19.5893 10.0066 19.9516 9.94263 20.3246C10.3689 20.3246 10.7845 20.3246 11.2001 20.3246C11.2694 20.3246 11.2694 20.2873 11.28 20.2393C11.3813 19.5679 11.4825 18.8966 11.5891 18.2252C11.6104 18.0973 11.6317 17.9694 11.6584 17.8043C12.0367 18.6195 12.399 19.4028 12.7507 20.186C12.8306 20.3672 12.9158 20.4525 13.1183 20.4258C13.2196 20.4152 13.2728 20.3885 13.3155 20.2979C13.6352 19.5946 13.9549 18.8912 14.2799 18.1932C14.3332 18.0707 14.3918 17.9535 14.4611 17.8043C14.493 18.0121 14.5197 18.1879 14.5463 18.3637C14.6422 18.9872 14.7381 19.6159 14.8287 20.2393C14.8341 20.2873 14.8394 20.3246 14.9086 20.3246C15.3243 20.3192 15.7399 20.3246 16.1661 20.3246C16.1288 20.1061 16.0915 19.893 16.0542 19.6852C15.8198 18.3318 15.58 16.973 15.3402 15.6143Z" fill="white"/>
<path d="M11.7969 4.86711C12.4576 5.46388 13.2302 5.61308 14.0721 5.336C14.3812 5.23477 14.605 5.01097 14.8234 4.72324C14.8234 4.91506 14.8288 5.06426 14.8234 5.21878C14.8181 5.29338 14.8394 5.32002 14.9193 5.32002C15.2923 5.31469 15.6706 5.31469 16.0436 5.32002C16.1182 5.32002 16.1449 5.30936 16.1449 5.22411C16.1395 3.72684 16.1449 2.22958 16.1449 0.726984C16.1449 0.652387 16.1235 0.636402 16.0543 0.636402C15.676 0.641731 15.2976 0.641731 14.9193 0.636402C14.8341 0.636402 14.8234 0.663044 14.8234 0.737641C14.8288 0.886834 14.8234 1.03603 14.8234 1.22252C14.6796 1.0307 14.541 0.881506 14.3705 0.764282C13.7471 0.348671 12.6921 0.391298 12.026 0.860193C11.392 1.3131 11.0723 1.94185 11.0083 2.7038C10.9497 3.54568 11.1628 4.29165 11.7969 4.86711ZM13.6618 1.65412C14.4078 1.65412 14.9566 2.21359 14.9513 2.97022C14.9513 3.72152 14.3918 4.29165 13.6565 4.29165C12.9159 4.29165 12.3671 3.73217 12.3671 2.97022C12.3724 2.20826 12.9212 1.64879 13.6618 1.65412Z" fill="white"/>
<path d="M18.4093 12.7797C18.8942 12.9822 19.4057 12.9982 19.9279 12.9556C21.2067 12.849 22.1072 11.8952 22.2084 10.7922C22.2884 9.89708 22.0379 9.1298 21.3186 8.54901C20.8018 8.12807 20.1943 7.99486 19.6189 7.98953C19.0221 7.98953 18.5159 8.06946 18.063 8.34653C17.1732 8.8847 16.7895 9.68928 16.8694 10.7123C16.9494 11.714 17.4875 12.3961 18.4093 12.7797ZM19.5443 9.16177C20.2743 9.16177 20.8604 9.75322 20.855 10.4832C20.855 11.2132 20.2636 11.794 19.5336 11.794C18.7983 11.794 18.2228 11.2132 18.2282 10.4725C18.2282 9.7319 18.8036 9.16177 19.5443 9.16177Z" fill="white"/>
<path d="M8.87161 8.432C8.38673 8.09631 7.83258 7.98442 7.18785 7.98974C6.93209 7.98974 6.62305 8.02171 6.314 8.1123C5.21103 8.43732 4.51835 9.41241 4.5663 10.574C4.60893 11.613 5.11512 12.343 6.05291 12.7586C6.61772 13.009 7.22515 13.0197 7.83258 12.9291C9.02613 12.748 9.87867 11.8048 9.92129 10.6006C9.96392 9.68949 9.62291 8.95417 8.87161 8.432ZM7.23581 11.7995C6.50582 11.7995 5.93036 11.2134 5.93569 10.4781C5.94102 9.73211 6.51648 9.16198 7.25712 9.16198C7.99243 9.16198 8.57322 9.75343 8.56789 10.4887C8.56256 11.2241 7.97645 11.7995 7.23581 11.7995Z" fill="white"/>
<path d="M8.17374 15.7208C7.7901 15.5343 7.37982 15.4864 6.95888 15.497C6.17028 15.5183 5.50957 15.7954 5.03534 16.4455C4.66769 16.9463 4.55046 17.5218 4.57711 18.1292C4.6144 19.0564 5.02469 19.765 5.85591 20.202C6.37276 20.4737 6.93756 20.5163 7.5077 20.4524C8.38687 20.3618 8.98365 19.8823 9.36729 19.1097C9.39926 19.0404 9.40459 19.0084 9.31401 18.9978C8.96766 18.9498 8.61599 18.8912 8.26965 18.8273C8.20571 18.8166 8.17374 18.8379 8.1471 18.8859C7.94995 19.2002 7.65689 19.3707 7.29456 19.424C6.56458 19.5306 5.96248 19.0404 5.94116 18.3157C5.94116 18.2305 5.95715 18.2038 6.04773 18.2038C6.59122 18.2092 7.14004 18.2038 7.68353 18.2038C8.23235 18.2038 8.78117 18.2038 9.32999 18.2038C9.42057 18.2038 9.44189 18.1772 9.44189 18.0919C9.43656 17.8309 9.42057 17.5751 9.36729 17.3193C9.21277 16.6107 8.85044 16.0459 8.17374 15.7208ZM8.05119 17.3673C7.72616 17.3566 7.40646 17.362 7.08143 17.362C6.75107 17.362 6.41539 17.3566 6.08503 17.362C5.99445 17.362 5.97846 17.3406 5.99977 17.2554C6.12233 16.7758 6.55925 16.4348 7.06544 16.4242C7.56631 16.4135 8.01922 16.7492 8.15775 17.2234C8.1844 17.33 8.17907 17.3673 8.05119 17.3673Z" fill="white"/>
<path d="M6.43119 5.31464C7.17716 5.30931 7.92313 5.31464 8.66909 5.31464C8.81296 5.31464 8.95683 5.30931 9.10069 5.288C9.9106 5.1761 10.4008 4.51006 10.2516 3.71081C10.161 3.20462 9.82002 2.93287 9.34579 2.79966C9.35645 2.77302 9.38309 2.76769 9.40441 2.75171C10.0598 2.37339 10.145 1.47823 9.57491 0.977367C9.27653 0.716278 8.90887 0.647009 8.53056 0.641681C7.82722 0.631024 7.12387 0.641681 6.42053 0.636353C6.33528 0.636353 6.31396 0.657666 6.31396 0.742919C6.31396 2.23486 6.31929 3.72147 6.31396 5.2134C6.31396 5.29866 6.34594 5.31464 6.43119 5.31464ZM8.82362 4.05715C8.73303 4.19036 8.58917 4.24897 8.43998 4.2543C8.19487 4.27029 7.94444 4.25963 7.69933 4.26496C7.63539 4.26496 7.6354 4.23299 7.6354 4.18503C7.6354 4.05182 7.6354 3.92394 7.6354 3.79073C7.6354 3.66818 7.64072 3.54563 7.6354 3.42308C7.63007 3.35381 7.65671 3.33782 7.72065 3.33782C7.9551 3.34315 8.18954 3.3325 8.42399 3.34848C8.84493 3.36979 9.04741 3.73745 8.82362 4.05715ZM7.72598 1.67538C7.93911 1.68071 8.15224 1.67538 8.36005 1.68071C8.60515 1.69137 8.73836 1.81925 8.74902 2.02705C8.76501 2.2615 8.64778 2.42135 8.41333 2.46398C8.17356 2.5066 7.92845 2.47463 7.68868 2.47996C7.63007 2.47996 7.6354 2.44266 7.6354 2.40004C7.6354 2.28281 7.6354 2.17092 7.6354 2.05369C7.6354 1.95778 7.64072 1.85654 7.6354 1.76063C7.6354 1.70202 7.64605 1.67005 7.72598 1.67538Z" fill="white"/>
<path d="M25.9065 10.3181C25.8425 10.2435 25.8479 10.2062 25.9171 10.1369C26.5299 9.54547 27.132 8.94869 27.7394 8.35192C27.8034 8.28798 27.8726 8.22937 27.9579 8.13879C27.4144 8.13879 26.9135 8.13879 26.4073 8.13879C26.386 8.13879 26.3647 8.13879 26.3434 8.13879C26.3008 8.13346 26.2741 8.15477 26.2475 8.18674C25.8958 8.5544 25.5441 8.92738 25.1871 9.28971C24.9793 9.49751 24.7609 9.68933 24.5531 9.88116C24.5531 9.35365 24.5531 8.7995 24.5531 8.24535C24.5531 8.16543 24.5371 8.13879 24.4465 8.13879C24.0735 8.14411 23.6952 8.14411 23.3222 8.13879C23.237 8.13879 23.2157 8.16543 23.221 8.24535C23.221 9.73729 23.221 11.2239 23.221 12.7158C23.221 12.7958 23.237 12.8224 23.3222 12.8224C23.6952 12.8171 24.0735 12.8171 24.4465 12.8224C24.5264 12.8224 24.5531 12.8011 24.5531 12.7158C24.5477 12.2203 24.5531 11.7301 24.5477 11.2346C24.5477 11.1227 24.5797 11.0481 24.6543 10.9681C24.7289 10.8935 24.7555 10.9095 24.8142 10.9788C25.299 11.5649 25.7892 12.1457 26.2794 12.7318C26.3274 12.7904 26.3807 12.8224 26.4606 12.8171C26.6631 12.8117 26.8602 12.8171 27.0627 12.8171C27.3824 12.8171 27.7074 12.8171 28.0485 12.8171C28.0058 12.7638 27.9739 12.7318 27.9472 12.6945C27.2705 11.9059 26.5885 11.1067 25.9065 10.3181Z" fill="white"/>
<path d="M19.4592 17.3194C19.0915 17.2981 18.7292 17.3087 18.3616 17.3141C18.271 17.3141 18.2497 17.2874 18.2497 17.2022C18.255 16.7279 18.2497 16.2484 18.255 15.7742C18.255 15.6836 18.239 15.6516 18.1378 15.6516C17.7701 15.6569 17.4078 15.6569 17.0401 15.6516C16.9442 15.6516 16.9229 15.6783 16.9229 15.7688C16.9282 16.5095 16.9229 17.2501 16.9229 17.9908C16.9229 18.7367 16.9229 19.4827 16.9229 20.2233C16.9229 20.2873 16.9176 20.3299 17.0082 20.3299C17.7968 20.3246 18.5854 20.3299 19.374 20.3246C19.7736 20.3192 20.1306 20.2073 20.4343 19.9356C20.9511 19.472 20.9884 18.5556 20.7167 18.0547C20.4449 17.5592 20.0027 17.346 19.4592 17.3194ZM19.1022 19.2589C18.8358 19.3069 18.5694 19.2696 18.303 19.2802C18.239 19.2802 18.255 19.2376 18.255 19.2003C18.255 19.0724 18.255 18.9445 18.255 18.8166C18.255 18.6834 18.2603 18.5556 18.255 18.4224C18.255 18.3584 18.271 18.3424 18.3349 18.3424C18.5747 18.3478 18.8198 18.3318 19.0596 18.3531C19.3313 18.3797 19.5072 18.5342 19.5178 18.758C19.5231 19.0351 19.3793 19.2109 19.1022 19.2589Z" fill="white"/>
<path d="M3.75643 8.24027C2.94652 7.90459 2.13128 7.86729 1.34269 8.27224C-0.0373552 8.98091 -0.165236 10.5634 0.261032 11.5279C0.900434 12.9718 2.58952 13.2702 3.76176 12.7108C3.80438 12.6894 3.82037 12.6628 3.82037 12.6148C3.82037 12.2152 3.82037 11.8156 3.82037 11.3947C3.7511 11.4479 3.69782 11.4906 3.64453 11.5279C2.80265 12.1193 1.53451 11.7303 1.42794 10.6007C1.37466 10.0253 1.6837 9.43382 2.19522 9.25799C2.73871 9.06617 3.26089 9.14077 3.72979 9.49244C3.75643 9.51375 3.77774 9.55105 3.8257 9.55105C3.8257 9.14609 3.8257 8.74114 3.8257 8.33618C3.82037 8.2829 3.80438 8.25626 3.75643 8.24027Z" fill="white"/>
<path d="M3.75123 15.7423C2.88804 15.3959 2.03018 15.3693 1.21494 15.8435C0.516929 16.2485 0.143944 16.8879 0.0693474 17.6871C0.016064 18.2466 0.0853325 18.7901 0.389048 19.2856C1.14035 20.5325 2.68024 20.7243 3.75656 20.2181C3.8205 20.1861 3.82583 20.1435 3.82583 20.0849C3.82583 19.7705 3.82583 19.4561 3.82583 19.1418C3.82583 19.0618 3.82583 18.9873 3.82583 18.8913C3.56474 19.1151 3.293 19.2483 2.9733 19.291C2.00887 19.4348 1.23626 18.6036 1.46005 17.6552C1.63055 16.9305 2.19536 16.5735 3.01059 16.6854C3.30898 16.728 3.5754 16.8612 3.8205 17.0744C3.8205 16.6428 3.8205 16.2432 3.8205 15.8435C3.8205 15.7956 3.80452 15.7636 3.75123 15.7423Z" fill="white"/>
<path d="M22.2459 20.33C22.6638 20.33 23.0025 19.9913 23.0025 19.5734C23.0025 19.1555 22.6638 18.8168 22.2459 18.8168C21.828 18.8168 21.4893 19.1555 21.4893 19.5734C21.4893 19.9913 21.828 20.33 22.2459 20.33Z" fill="white"/>
</svg>
