<svg width="29" height="21" viewBox="0 0 29 21" fill="none" xmlns="http://www.w3.org/2000/svg">
<path d="M5.52017 6.67371C5.58411 6.67371 5.60542 6.65772 5.60542 6.58845C5.60542 5.81584 5.60542 5.03791 5.60542 4.2653C5.60542 4.20135 5.58944 4.17471 5.52017 4.18004C5.36032 4.18537 5.19514 4.17471 5.03529 4.18537C4.93938 4.1907 4.90741 4.16406 4.91274 4.06282C4.91807 2.95452 4.91274 1.85155 4.91807 0.743258C4.91807 0.658005 4.90208 0.631363 4.80617 0.631363C4.19874 0.636691 3.58598 0.631363 2.97855 0.631363C2.36046 0.631363 1.74237 0.631363 1.12428 0.631363C1.03903 0.631363 1.01772 0.652676 1.01772 0.73793C1.02304 1.29208 1.02304 1.84623 1.01772 2.40037C1.01772 2.67745 1.00173 2.95452 0.943119 3.22627C0.836552 3.71648 0.602105 4.09479 0.0586137 4.18004C-0.0053265 4.1907 1.93489e-06 4.22267 1.93489e-06 4.2653C1.93489e-06 5.03791 1.93489e-06 5.81584 1.93489e-06 6.58845C1.93489e-06 6.66305 0.0213153 6.67904 0.0959121 6.67904C0.42627 6.67371 0.761956 6.67371 1.09231 6.67904C1.18822 6.67904 1.20421 6.64707 1.20421 6.56181C1.19888 6.18883 1.20421 5.81052 1.19888 5.43753C1.19888 5.34162 1.22019 5.30965 1.32143 5.30965C2.30718 5.31498 3.29825 5.31498 4.28399 5.30965C4.3799 5.30965 4.41187 5.33097 4.41187 5.4322C4.40655 5.81052 4.41187 6.18883 4.40655 6.56714C4.40655 6.63641 4.4172 6.67371 4.50246 6.67371C4.8488 6.67371 5.18448 6.67371 5.52017 6.67371ZM3.59131 4.09479C3.59131 4.16406 3.57532 4.18537 3.50073 4.18537C2.91994 4.18004 2.34447 4.18537 1.76368 4.18537C1.75303 4.18537 1.74237 4.18004 1.71573 4.17471C2.12601 3.78574 2.21127 3.28488 2.21659 2.7627C2.22192 2.45899 2.22192 2.1606 2.21659 1.85688C2.21659 1.78229 2.22725 1.75564 2.3125 1.75564C2.7068 1.76097 3.10643 1.76097 3.50073 1.75564C3.57532 1.75564 3.59131 1.77696 3.59131 1.84623C3.59131 2.59752 3.59131 3.34349 3.59131 4.09479Z" fill="black"/>
<path d="M11.0616 14.4262C11.4186 14.4208 11.7756 14.4208 12.1326 14.4262C12.2445 14.4262 12.2605 14.3889 12.2605 14.2876C12.2552 13.6536 12.2605 13.0195 12.2605 12.3854C12.2605 12.3428 12.2498 12.3002 12.2712 12.2575C12.3138 12.2735 12.3298 12.3161 12.3564 12.3428C12.5482 12.5612 12.772 12.7317 13.0438 12.8383C13.7791 13.1207 15.0099 13.0035 15.692 11.9165C16.0543 11.3411 16.1289 10.7123 16.0543 10.0516C15.9424 9.05519 15.2231 8.10674 14.0721 7.99485C13.486 7.93624 12.9425 8.03215 12.495 8.45309C12.415 8.52768 12.3458 8.61294 12.2552 8.70885C12.2552 8.53301 12.2498 8.38382 12.2552 8.2293C12.2605 8.14937 12.2392 8.12806 12.1593 8.12806C11.7863 8.13339 11.408 8.13339 11.035 8.12806C10.9444 8.12806 10.9337 8.16003 10.9337 8.23463C10.9337 10.2541 10.9337 12.2788 10.9337 14.2983C10.9391 14.4102 10.971 14.4262 11.0616 14.4262ZM13.4327 9.16176C14.184 9.16176 14.7169 9.72123 14.7169 10.4938C14.7169 11.2451 14.1574 11.7993 13.4061 11.794C12.6761 11.794 12.1326 11.2185 12.1326 10.4565C12.138 9.71058 12.6921 9.16176 13.4327 9.16176Z" fill="black"/>
<path d="M15.3403 15.6143C15.3243 15.5344 15.2923 15.5131 15.2124 15.5131C14.9566 15.5184 14.7009 15.5184 14.4451 15.5131C14.3652 15.5131 14.3279 15.5397 14.2906 15.609C14.0721 16.0992 13.8484 16.5894 13.6246 17.0796C13.4381 17.4899 13.2516 17.8948 13.0544 18.3264C12.6335 17.41 12.2285 16.5148 11.8183 15.6196C11.7863 15.545 11.749 15.5077 11.6584 15.5131C11.4719 15.5184 11.2854 15.5131 11.0989 15.5131C10.7846 15.5131 10.7899 15.5131 10.7366 15.8274C10.5394 16.9624 10.3316 18.092 10.1345 19.2269C10.0706 19.5893 10.0066 19.9516 9.94267 20.3246C10.3689 20.3246 10.7846 20.3246 11.2002 20.3246C11.2694 20.3246 11.2694 20.2873 11.2801 20.2393C11.3813 19.5679 11.4826 18.8966 11.5891 18.2252C11.6104 18.0973 11.6318 17.9694 11.6584 17.8043C12.0367 18.6195 12.399 19.4028 12.7507 20.186C12.8306 20.3672 12.9159 20.4525 13.1184 20.4258C13.2196 20.4152 13.2729 20.3885 13.3155 20.2979C13.6352 19.5946 13.9549 18.8912 14.2799 18.1932C14.3332 18.0707 14.3918 17.9535 14.4611 17.8043C14.4931 18.0121 14.5197 18.1879 14.5464 18.3637C14.6423 18.9872 14.7382 19.6159 14.8288 20.2393C14.8341 20.2873 14.8394 20.3246 14.9087 20.3246C15.3243 20.3192 15.7399 20.3246 16.1662 20.3246C16.1289 20.1061 16.0916 19.893 16.0543 19.6852C15.8198 18.3318 15.5801 16.973 15.3403 15.6143Z" fill="black"/>
<path d="M11.797 4.86711C12.4577 5.46388 13.2303 5.61308 14.0722 5.336C14.3812 5.23477 14.605 5.01097 14.8235 4.72324C14.8235 4.91506 14.8288 5.06426 14.8235 5.21878C14.8182 5.29338 14.8395 5.32002 14.9194 5.32002C15.2924 5.31469 15.6707 5.31469 16.0437 5.32002C16.1183 5.32002 16.1449 5.30936 16.1449 5.22411C16.1396 3.72684 16.1449 2.22958 16.1449 0.726984C16.1449 0.652387 16.1236 0.636402 16.0543 0.636402C15.676 0.641731 15.2977 0.641731 14.9194 0.636402C14.8341 0.636402 14.8235 0.663044 14.8235 0.737641C14.8288 0.886834 14.8235 1.03603 14.8235 1.22252C14.6796 1.0307 14.5411 0.881506 14.3706 0.764282C13.7472 0.348671 12.6921 0.391298 12.0261 0.860193C11.392 1.3131 11.0723 1.94185 11.0084 2.7038C10.9498 3.54568 11.1629 4.29165 11.797 4.86711ZM13.6619 1.65412C14.4079 1.65412 14.9567 2.21359 14.9514 2.97022C14.9514 3.72152 14.3919 4.29165 13.6566 4.29165C12.9159 4.29165 12.3671 3.73217 12.3671 2.97022C12.3724 2.20826 12.9213 1.64879 13.6619 1.65412Z" fill="black"/>
<path d="M18.4094 12.7797C18.8943 12.9822 19.4058 12.9982 19.928 12.9556C21.2068 12.849 22.1073 11.8952 22.2085 10.7922C22.2885 9.89708 22.038 9.1298 21.3187 8.54901C20.8019 8.12807 20.1944 7.99486 19.619 7.98953C19.0222 7.98953 18.516 8.06946 18.0631 8.34653C17.1732 8.8847 16.7896 9.68928 16.8695 10.7123C16.9495 11.714 17.4876 12.3961 18.4094 12.7797ZM19.5444 9.16177C20.2743 9.16177 20.8605 9.75322 20.8551 10.4832C20.8551 11.2132 20.2637 11.794 19.5337 11.794C18.7984 11.794 18.2229 11.2132 18.2283 10.4725C18.2283 9.7319 18.8037 9.16177 19.5444 9.16177Z" fill="black"/>
<path d="M8.8717 8.43198C8.38682 8.0963 7.83267 7.9844 7.18794 7.98973C6.93218 7.98973 6.62314 8.0217 6.31409 8.11228C5.21113 8.43731 4.51844 9.4124 4.5664 10.574C4.60902 11.613 5.11522 12.343 6.05301 12.7586C6.61781 13.009 7.22524 13.0197 7.83267 12.9291C9.02622 12.7479 9.87876 11.8048 9.92139 10.6006C9.96401 9.68947 9.623 8.95416 8.8717 8.43198ZM7.2359 11.7995C6.50591 11.7995 5.93045 11.2134 5.93578 10.4781C5.94111 9.7321 6.51657 9.16196 7.25721 9.16196C7.99252 9.16196 8.57331 9.75341 8.56798 10.4887C8.56266 11.224 7.97654 11.7995 7.2359 11.7995Z" fill="black"/>
<path d="M8.17365 15.7208C7.79001 15.5343 7.37972 15.4864 6.95879 15.497C6.17019 15.5184 5.50947 15.7954 5.03525 16.4455C4.6676 16.9464 4.55037 17.5218 4.57701 18.1293C4.61431 19.0564 5.0246 19.7651 5.85582 20.202C6.37267 20.4737 6.93747 20.5164 7.50761 20.4524C8.38678 20.3618 8.98356 19.8823 9.3672 19.1097C9.39917 19.0404 9.4045 19.0084 9.31391 18.9978C8.96757 18.9498 8.6159 18.8912 8.26956 18.8273C8.20562 18.8166 8.17365 18.8379 8.14701 18.8859C7.94986 19.2003 7.6568 19.3708 7.29447 19.424C6.56449 19.5306 5.96238 19.0404 5.94107 18.3157C5.94107 18.2305 5.95706 18.2039 6.04764 18.2039C6.59113 18.2092 7.13995 18.2039 7.68344 18.2039C8.23226 18.2039 8.78108 18.2039 9.3299 18.2039C9.42048 18.2039 9.4418 18.1772 9.4418 18.092C9.43647 17.8309 9.42048 17.5751 9.3672 17.3193C9.21268 16.6107 8.85035 16.0459 8.17365 15.7208ZM8.0511 17.3673C7.72607 17.3566 7.40637 17.362 7.08134 17.362C6.75098 17.362 6.41529 17.3566 6.08494 17.362C5.99435 17.362 5.97837 17.3407 5.99968 17.2554C6.12223 16.7759 6.55916 16.4348 7.06535 16.4242C7.56622 16.4135 8.01913 16.7492 8.15766 17.2234C8.1843 17.33 8.17898 17.3673 8.0511 17.3673Z" fill="black"/>
<path d="M6.43128 5.31464C7.17725 5.30931 7.92322 5.31464 8.66919 5.31464C8.81305 5.31464 8.95692 5.30931 9.10078 5.288C9.91069 5.1761 10.4009 4.51006 10.2517 3.71081C10.1611 3.20462 9.82011 2.93287 9.34589 2.79966C9.35654 2.77302 9.38318 2.76769 9.4045 2.75171C10.0599 2.37339 10.1451 1.47823 9.57501 0.977367C9.27662 0.716278 8.90896 0.647009 8.53065 0.641681C7.82731 0.631024 7.12397 0.641681 6.42062 0.636353C6.33537 0.636353 6.31406 0.657666 6.31406 0.742919C6.31406 2.23486 6.31938 3.72147 6.31406 5.2134C6.31406 5.29866 6.34603 5.31464 6.43128 5.31464ZM8.82371 4.05715C8.73313 4.19036 8.58926 4.24897 8.44007 4.2543C8.19496 4.27029 7.94453 4.25963 7.69943 4.26496C7.63549 4.26496 7.63549 4.23299 7.63549 4.18503C7.63549 4.05182 7.63549 3.92394 7.63549 3.79073C7.63549 3.66818 7.64081 3.54563 7.63549 3.42308C7.63016 3.35381 7.6568 3.33782 7.72074 3.33782C7.95519 3.34315 8.18963 3.3325 8.42408 3.34848C8.84502 3.36979 9.0475 3.73745 8.82371 4.05715ZM7.72607 1.67538C7.9392 1.68071 8.15234 1.67538 8.36014 1.68071C8.60525 1.69137 8.73845 1.81925 8.74911 2.02705C8.7651 2.2615 8.64787 2.42135 8.41343 2.46398C8.17365 2.5066 7.92855 2.47463 7.68877 2.47996C7.63016 2.47996 7.63549 2.44266 7.63549 2.40004C7.63549 2.28281 7.63549 2.17092 7.63549 2.05369C7.63549 1.95778 7.64081 1.85654 7.63549 1.76063C7.63549 1.70202 7.64614 1.67005 7.72607 1.67538Z" fill="black"/>
<path d="M25.9064 10.3181C25.8425 10.2435 25.8478 10.2062 25.9171 10.1369C26.5299 9.54545 27.132 8.94868 27.7394 8.3519C27.8033 8.28796 27.8726 8.22935 27.9578 8.13877C27.4144 8.13877 26.9135 8.13877 26.4073 8.13877C26.386 8.13877 26.3647 8.13877 26.3434 8.13877C26.3007 8.13344 26.2741 8.15476 26.2474 8.18673C25.8958 8.55438 25.5441 8.92737 25.1871 9.28969C24.9793 9.4975 24.7608 9.68932 24.553 9.88114C24.553 9.35363 24.553 8.79949 24.553 8.24534C24.553 8.16541 24.5371 8.13877 24.4465 8.13877C24.0735 8.1441 23.6952 8.1441 23.3222 8.13877C23.2369 8.13877 23.2156 8.16541 23.2209 8.24534C23.2209 9.73727 23.2209 11.2239 23.2209 12.7158C23.2209 12.7957 23.2369 12.8224 23.3222 12.8224C23.6952 12.8171 24.0735 12.8171 24.4465 12.8224C24.5264 12.8224 24.553 12.8011 24.553 12.7158C24.5477 12.2203 24.553 11.7301 24.5477 11.2345C24.5477 11.1226 24.5797 11.048 24.6543 10.9681C24.7289 10.8935 24.7555 10.9095 24.8141 10.9788C25.299 11.5649 25.7892 12.1457 26.2794 12.7318C26.3274 12.7904 26.3807 12.8224 26.4606 12.8171C26.6631 12.8117 26.8602 12.8171 27.0627 12.8171C27.3824 12.8171 27.7074 12.8171 28.0484 12.8171C28.0058 12.7638 27.9738 12.7318 27.9472 12.6945C27.2705 11.9059 26.5885 11.1067 25.9064 10.3181Z" fill="black"/>
<path d="M19.4591 17.3194C19.0915 17.2981 18.7291 17.3087 18.3615 17.314C18.2709 17.314 18.2496 17.2874 18.2496 17.2021C18.2549 16.7279 18.2496 16.2484 18.2549 15.7741C18.2549 15.6836 18.2389 15.6516 18.1377 15.6516C17.77 15.6569 17.4077 15.6569 17.04 15.6516C16.9441 15.6516 16.9228 15.6782 16.9228 15.7688C16.9281 16.5095 16.9228 17.2501 16.9228 17.9907C16.9228 18.7367 16.9228 19.4827 16.9228 20.2233C16.9228 20.2873 16.9175 20.3299 17.0081 20.3299C17.7967 20.3246 18.5853 20.3299 19.3739 20.3246C19.7735 20.3192 20.1305 20.2073 20.4342 19.9356C20.951 19.472 20.9883 18.5555 20.7166 18.0547C20.4449 17.5591 20.0026 17.346 19.4591 17.3194ZM19.1021 19.2589C18.8357 19.3068 18.5693 19.2695 18.3029 19.2802C18.2389 19.2802 18.2549 19.2376 18.2549 19.2003C18.2549 19.0724 18.2549 18.9445 18.2549 18.8166C18.2549 18.6834 18.2602 18.5555 18.2549 18.4223C18.2549 18.3584 18.2709 18.3424 18.3348 18.3424C18.5746 18.3477 18.8197 18.3318 19.0595 18.3531C19.3312 18.3797 19.5071 18.5342 19.5177 18.758C19.5231 19.0351 19.3792 19.2109 19.1021 19.2589Z" fill="black"/>
<path d="M3.75641 8.24027C2.9465 7.90459 2.13127 7.86729 1.34267 8.27224C-0.0373705 8.98091 -0.165251 10.5634 0.261017 11.5279C0.900418 12.9718 2.5895 13.2702 3.76174 12.7108C3.80437 12.6894 3.82035 12.6628 3.82035 12.6148C3.82035 12.2152 3.82035 11.8156 3.82035 11.3947C3.75108 11.4479 3.6978 11.4906 3.64452 11.5279C2.80264 12.1193 1.53449 11.7303 1.42792 10.6007C1.37464 10.0253 1.68369 9.43382 2.19521 9.25799C2.7387 9.06617 3.26088 9.14077 3.72977 9.49244C3.75641 9.51375 3.77773 9.55105 3.82568 9.55105C3.82568 9.14609 3.82568 8.74114 3.82568 8.33618C3.82035 8.2829 3.80437 8.25626 3.75641 8.24027Z" fill="black"/>
<path d="M3.75114 15.7423C2.88795 15.3959 2.03009 15.3693 1.21485 15.8435C0.516837 16.2485 0.143853 16.8879 0.0692559 17.6871C0.0159724 18.2466 0.0852409 18.7901 0.388957 19.2856C1.14025 20.5325 2.68015 20.7243 3.75647 20.2181C3.82041 20.1861 3.82574 20.1435 3.82574 20.0849C3.82574 19.7705 3.82574 19.4561 3.82574 19.1418C3.82574 19.0618 3.82574 18.9872 3.82574 18.8913C3.56465 19.1151 3.29291 19.2483 2.9732 19.291C2.00877 19.4348 1.23616 18.6036 1.45995 17.6551C1.63046 16.9305 2.19527 16.5735 3.0105 16.6854C3.30889 16.728 3.57531 16.8612 3.82041 17.0744C3.82041 16.6428 3.82041 16.2431 3.82041 15.8435C3.82041 15.7956 3.80443 15.7636 3.75114 15.7423Z" fill="black"/>
<path d="M22.2458 20.33C22.6637 20.33 23.0024 19.9913 23.0024 19.5734C23.0024 19.1555 22.6637 18.8168 22.2458 18.8168C21.8279 18.8168 21.4892 19.1555 21.4892 19.5734C21.4892 19.9913 21.8279 20.33 22.2458 20.33Z" fill="black"/>
</svg>
